<svg xmlns="http://www.w3.org/2000/svg" width="17.875" height="15.985" viewBox="0 0 17.875 15.985">
  <path id="Comment_Icon-01" data-name="Comment Icon-01" d="M7.2,15.5c-.2-.5-.5-1.1-.7-1.6a2.2,2.2,0,0,1-.1-.8c0-.2.1-.3.3-.5a1.087,1.087,0,0,1,.5-.1c3.4.4,5.9,0,7.5-.9a5.014,5.014,0,0,0,2.6-4,5.509,5.509,0,0,0-1.8-4.8A9.867,9.867,0,0,0,9.7.6C5.1,0,1,3,.5,7.1.1,10.9,3,14.6,7.2,15.5Z" transform="translate(0.041 -0.015)" fill="none" stroke="#657786" stroke-linecap="round" stroke-linejoin="round" stroke-miterlimit="10" stroke-width="1"/>
</svg>
