<svg
    xmlns="http://www.w3.org/2000/svg"
    viewBox="0 0 511 511"
    id="vector">
    <path
        id="path"
        d="M 275.248 51.684 C 285.821 42.101 298.665 27.059 298.665 10.663 C 298.665 7.225 297.019 4.017 294.238 2.017 C 291.436 -0.004 287.863 -0.525 284.623 0.538 L 255.988 10.08 L 227.373 0.538 C 224.113 -0.525 220.54 -0.004 217.758 2.017 C 214.977 4.017 213.331 7.225 213.331 10.663 C 213.331 26.955 226.019 41.913 236.779 51.642 C 44.936 159.35 42.665 303.121 42.665 309.33 C 42.665 315.226 47.436 319.997 53.332 319.997 L 63.999 319.997 L 63.999 469.33 C 63.999 492.851 83.134 511.997 106.666 511.997 L 405.333 511.997 C 428.864 511.997 448 492.851 448 469.33 L 448 319.996 L 458.667 319.996 C 464.563 319.996 469.334 315.225 469.334 309.329 C 469.332 303.1 467.061 158.913 275.248 51.684 Z M 252.613 31.455 C 254.801 32.163 257.176 32.163 259.363 31.455 L 268.165 28.517 C 264.311 32.934 259.852 37.038 256.05 40.121 C 252.112 36.933 247.665 32.871 243.852 28.517 L 252.613 31.455 Z M 319.998 490.663 L 191.998 490.663 L 191.998 426.663 C 191.998 391.371 220.706 362.663 255.998 362.663 C 291.29 362.663 319.998 391.371 319.998 426.663 L 319.998 490.663 Z M 426.665 469.33 C 426.665 481.101 417.092 490.663 405.332 490.663 L 341.332 490.663 L 341.332 426.663 C 341.332 379.6 303.051 341.33 255.999 341.33 C 208.947 341.33 170.666 379.601 170.666 426.663 L 170.666 490.663 L 106.666 490.663 C 94.906 490.663 85.333 481.1 85.333 469.33 L 85.333 319.996 L 426.666 319.996 L 426.666 469.33 Z M 64.988 298.663 C 69.759 263.871 97.342 151.33 255.957 65.392 C 414.676 150.934 442.249 263.809 447.009 298.663 L 64.988 298.663 Z"
        fill="black"/>
</svg>
