<svg
    xmlns="http://www.w3.org/2000/svg"
    viewBox="0 0 18 18"
    id="vector">
    <path
        id="path"
        d="M 16.047 7.41 L 3.48 7.41 L 8.973 1.917 C 9.112 1.777 9.213 1.604 9.263 1.413 C 9.314 1.222 9.314 1.021 9.262 0.831 C 9.211 0.641 9.11 0.467 8.97 0.328 C 8.758 0.118 8.471 0 8.172 0.001 C 7.874 0.001 7.587 0.12 7.376 0.331 L 0.586 7.12 C 0.211 7.495 0 8.004 0 8.534 C 0 9.064 0.211 9.573 0.586 9.948 L 7.378 16.741 C 7.591 16.938 7.872 17.045 8.163 17.04 C 8.453 17.034 8.73 16.916 8.935 16.711 C 9.14 16.506 9.258 16.229 9.264 15.939 C 9.269 15.648 9.162 15.367 8.965 15.154 L 3.48 9.66 L 16.047 9.66 C 16.345 9.66 16.632 9.541 16.842 9.33 C 17.053 9.12 17.172 8.833 17.172 8.535 C 17.172 8.237 17.053 7.95 16.842 7.74 C 16.632 7.529 16.345 7.41 16.047 7.41 Z"
        fill="black"/>
</svg>
