<svg
    xmlns="http://www.w3.org/2000/svg"
    viewBox="0 0 17 18"
    id="vector">
    <path
        id="path"
        d="M 7.873 8.204 M 3.348 12.729 C 2.388 11.775 1.755 10.54 1.541 9.203 C 1.326 7.866 1.542 6.495 2.155 5.288 C 2.769 4.082 3.751 3.1 4.957 2.486 C 6.164 1.872 7.535 1.657 8.872 1.871 C 10.209 2.086 11.444 2.719 12.398 3.679 C 13.358 4.634 13.992 5.869 14.206 7.205 C 14.42 8.542 14.205 9.913 13.591 11.12 C 12.977 12.327 11.996 13.308 10.789 13.922 C 9.582 14.536 8.211 14.751 6.874 14.537 C 5.538 14.322 4.303 13.689 3.348 12.729"
        fill="#00000000"
        stroke="#585858"
        stroke-width="1"
        stroke-linecap="round"
        fill-rule="evenodd"/>
    <path
        id="path_1"
        d="M 12.733 13.049 L 15.834 16.149"
        fill="#00000000"
        stroke="#585858"
        stroke-width="1"
        stroke-linecap="round"
        fill-rule="evenodd"/>
</svg>
