<svg xmlns="http://www.w3.org/2000/svg" width="16.003" height="16.003" viewBox="0 0 16.003 16.003">
  <g id="Like_Icon_-_Default_State" data-name="Like Icon - Default State" transform="translate(0.002 0.002)">
    <path id="Path_1" data-name="Path 1" d="M.5,8.5a1,1,0,0,1,1-1H4.6v8H1.5a1,1,0,0,1-1-1Z" fill="none" stroke="#657786" stroke-linecap="round" stroke-linejoin="round" stroke-width="1.003"/>
    <path id="Path_2" data-name="Path 2" d="M5,15.5h6.3a4.336,4.336,0,0,0,4.2-4.4V8.4a2.818,2.818,0,0,0-2.8-2.9H10.6a.536.536,0,0,1-.5-.5,7.312,7.312,0,0,0-.8-3.7" fill="none" stroke="#657786" stroke-linecap="round" stroke-linejoin="round" stroke-width="1.003"/>
    <path id="Path_3" data-name="Path 3" d="M9.6,1.9A1.887,1.887,0,0,0,7.7.5,1.367,1.367,0,0,0,6.5,2" fill="none" stroke="#657786" stroke-width="1.003"/>
    <path id="Path_4" data-name="Path 4" d="M3,7.5A3.543,3.543,0,0,0,6.5,4V2" fill="none" stroke="#657786" stroke-width="1.003"/>
  </g>
</svg>
