<svg xmlns="http://www.w3.org/2000/svg" width="23.807" height="16.087" viewBox="0 0 23.807 16.087">
  <g id="Re-Koo_Icon-01" data-name="Re-Koo Icon-01" transform="translate(-0.084 0.219)">
    <path id="Path_1" data-name="Path 1" d="M17,10.1a5.125,5.125,0,0,1-5,5.2,5.125,5.125,0,0,1-5-5.2,5.125,5.125,0,0,1,5-5.2A5.125,5.125,0,0,1,17,10.1Z" fill="none" stroke="#657786" stroke-width="1.135"/>
    <path id="Path_2" data-name="Path 2" d="M21.4,2.8a16.252,16.252,0,0,0-3.8.1,14.383,14.383,0,0,0-3.7,1,9.147,9.147,0,0,0-1.7.9" fill="none" stroke="#657786" stroke-linecap="round" stroke-width="1.02"/>
    <path id="Path_3" data-name="Path 3" d="M21.6,5.4l1.7-2.3c.1-.1.1-.2,0-.2L21.6.5" fill="none" stroke="#657786" stroke-linecap="round" stroke-linejoin="round" stroke-width="1.032"/>
    <path id="Path_4" data-name="Path 4" d="M2.6,2.8a16.252,16.252,0,0,1,3.8.1A14.473,14.473,0,0,1,10.1,4a9.147,9.147,0,0,1,1.7.9" fill="none" stroke="#657786" stroke-linecap="round" stroke-width="1.02"/>
    <path id="Path_5" data-name="Path 5" d="M2.4,5.4.6,3.1V2.9L2.3.5" fill="none" stroke="#657786" stroke-linecap="round" stroke-linejoin="round" stroke-width="1.032"/>
  </g>
</svg>
