<svg xmlns="http://www.w3.org/2000/svg" width="16.042" height="15.999" viewBox="0 0 16.042 15.999">
  <g id="Whatsapp_Icon" data-name="Whatsapp Icon" transform="translate(-0.048 0.1)">
    <path id="Path_1" data-name="Path 1" d="M4.3,14.7l-3.4.6,1-2.3a.972.972,0,0,0-.1-.9,7.357,7.357,0,0,1-1.2-5A7.646,7.646,0,0,1,3,2.4,7.959,7.959,0,0,1,7.9.4a7.614,7.614,0,0,1,7.6,6.4A7.482,7.482,0,0,1,14.3,12,7.563,7.563,0,0,1,10,15.1a7.755,7.755,0,0,1-5.2-.4H4.3" fill="none" stroke="#657786" stroke-linecap="round" stroke-linejoin="round" stroke-width="1"/>
    <path id="Path_2" data-name="Path 2" d="M5.3,4.5H6.5a.675.675,0,0,1,.6.4L7.6,6a.63.63,0,0,1-.3.8h0a.651.651,0,0,0-.2.9A3.447,3.447,0,0,0,8.3,8.9a.524.524,0,0,0,.8-.2h0a.806.806,0,0,1,.9-.3l.5.2.6.2a.622.622,0,0,1,.4.6v1.2a1.421,1.421,0,0,1-.2.6c-.1.2-.4.2-.6.2A7.046,7.046,0,0,1,6.4,9.5,6.549,6.549,0,0,1,4.5,5.3a1.421,1.421,0,0,1,.2-.6A1.421,1.421,0,0,1,5.3,4.5Z" fill="none" stroke="#657786" stroke-linecap="round" stroke-linejoin="round" stroke-width="1"/>
  </g>
</svg>
